<?xml version="1.0" encoding="UTF-8" standalone="no"?>
<!-- Generator: Adobe Illustrator 16.0.0, SVG Export Plug-In . SVG Version: 6.00 Build 0)  -->

<svg
   xmlns:dc="http://purl.org/dc/elements/1.1/"
   xmlns:cc="http://creativecommons.org/ns#"
   xmlns:rdf="http://www.w3.org/1999/02/22-rdf-syntax-ns#"
   xmlns:svg="http://www.w3.org/2000/svg"
   xmlns="http://www.w3.org/2000/svg"
   xmlns:sodipodi="http://sodipodi.sourceforge.net/DTD/sodipodi-0.dtd"
   xmlns:inkscape="http://www.inkscape.org/namespaces/inkscape"
   version="1.1"
   id="Camada_1"
   x="0px"
   y="0px"
   width="13.599012"
   height="23.999952"
   viewBox="151.5 50.5 13.599012 23.999952"
   enable-background="new 151.5 50.5 308 534"
   xml:space="preserve"
   inkscape:version="0.91 r13725"
   sodipodi:docname="Flame.svg"><metadata
     id="metadata4143"><rdf:RDF><cc:Work
         rdf:about=""><dc:format>image/svg+xml</dc:format><dc:type
           rdf:resource="http://purl.org/dc/dcmitype/StillImage" /><dc:title></dc:title></cc:Work></rdf:RDF></metadata><defs
     id="defs4141" /><sodipodi:namedview
     pagecolor="#ffffff"
     bordercolor="#666666"
     borderopacity="1"
     objecttolerance="10"
     gridtolerance="10"
     guidetolerance="10"
     inkscape:pageopacity="0"
     inkscape:pageshadow="2"
     inkscape:window-width="1920"
     inkscape:window-height="1017"
     id="namedview4139"
     showgrid="false"
     fit-margin-top="0"
     fit-margin-left="0"
     fit-margin-right="0"
     fit-margin-bottom="0"
     inkscape:zoom="1.588015"
     inkscape:cx="6.2987072"
     inkscape:cy="14.003991"
     inkscape:window-x="1912"
     inkscape:window-y="-8"
     inkscape:window-maximized="1"
     inkscape:current-layer="Camada_1" /><path
     d="m 164.04897,64.70008 c -1.51982,-1.95904 -1.54905,-4.19398 -0.75511,-6.16747 -1.68254,1.64796 -2.62992,3.68558 -1.96835,5.74303 0.084,0.26168 0.13779,0.51803 0.17717,0.77975 l 0.0151,0.31561 -0.0939,0.0346 -0.39951,-0.91301 c -0.56765,-1.55387 -0.65133,-3.1922 -0.0938,-4.87478 1.1101,-3.2957 -0.34026,-6.52278 -2.98496,-9.11781 1.2187,3.13775 1.10528,6.70538 -1.36159,9.86324 -0.47383,0.60199 -0.86344,1.21389 -1.17418,1.84024 l -0.18774,0.41426 0.015,-0.10833 c 0.4982,-2.12147 -0.58721,-4.04594 -2.39312,-5.49631 0.93738,1.87962 1.08059,4.11007 -0.28128,6.23155 -1.13989,2.19041 -1.43109,4.90938 -0.53786,6.92745 1.39648,2.91601 3.25178,4.258 5.7731,4.32694 0.36491,0.005 0.74005,-0.01 1.12507,-0.0592 2.05744,-0.22202 4.6281,-1.22807 5.45688,-3.61127 0.81886,-2.04336 1.20874,-4.13565 -0.3309,-6.12846 z"
     id="path4137"
     style="fill:#ff0000"
     inkscape:connector-curvature="0" /></svg>